<svg xmlns="http://www.w3.org/2000/svg" width="860" height="280" viewBox="0 0 860 280" style="border-radius:12px;font-family:system-ui,sans-serif">
  <style><![CDATA[
    /* Rendered as an img element, so prefers-color-scheme is evaluated by the
       viewer's browser — this keeps the chart legible on GitHub's dark theme
       instead of showing a white slab. CDATA because SVG style content is
       parsed as markup otherwise. */
    .bg{fill:#ffffff}
    .grid{stroke:#e5e7eb}
    .axis{stroke:#d1d5db}
    .lbl{fill:#6b7280}
    .legend{fill:#374151}
    .foot{fill:#9ca3af}
    .dot{stroke:#ffffff}
    @media (prefers-color-scheme:dark){
      .bg{fill:#0d1117}
      .grid{stroke:#30363d}
      .axis{stroke:#3d444d}
      .lbl{fill:#9198a1}
      .legend{fill:#e6edf3}
      .foot{fill:#7d8590}
      .dot{stroke:#0d1117}
    }
  ]]></style>
  <rect class="bg" x="0" y="0" width="860" height="280" rx="12"/>
  <defs>
    <linearGradient id="grad0" x1="0" y1="0" x2="0" y2="1">
      <stop offset="0%"   stop-color="#818cf8" stop-opacity="0.35"/>
      <stop offset="100%" stop-color="#818cf8" stop-opacity="0.02"/>
    </linearGradient>
    <linearGradient id="grad1" x1="0" y1="0" x2="0" y2="1">
      <stop offset="0%"   stop-color="#34d399" stop-opacity="0.35"/>
      <stop offset="100%" stop-color="#34d399" stop-opacity="0.02"/>
    </linearGradient>
  </defs>
  
    <line x1="64" y1="224.0" x2="836" y2="224.0" class="grid" stroke-width="1"/>
    <text x="56" y="224.0" text-anchor="end" dominant-baseline="middle" font-size="11" class="lbl">0</text>
    <line x1="64" y1="180.0" x2="836" y2="180.0" class="grid" stroke-width="1"/>
    <text x="56" y="180.0" text-anchor="end" dominant-baseline="middle" font-size="11" class="lbl">100</text>
    <line x1="64" y1="136.0" x2="836" y2="136.0" class="grid" stroke-width="1"/>
    <text x="56" y="136.0" text-anchor="end" dominant-baseline="middle" font-size="11" class="lbl">200</text>
    <line x1="64" y1="92.0" x2="836" y2="92.0" class="grid" stroke-width="1"/>
    <text x="56" y="92.0" text-anchor="end" dominant-baseline="middle" font-size="11" class="lbl">300</text>
    <line x1="64" y1="48.0" x2="836" y2="48.0" class="grid" stroke-width="1"/>
    <text x="56" y="48.0" text-anchor="end" dominant-baseline="middle" font-size="11" class="lbl">400</text>
  
    <polygon points="64.0,223.6 90.6,224.0 117.2,224.0 143.9,224.0 170.5,224.0 197.1,224.0 223.7,221.8 250.3,223.1 277.0,198.0 303.6,210.8 330.2,224.0 356.8,202.9 383.4,224.0 410.1,222.7 436.7,224.0 463.3,224.0 489.9,224.0 516.6,198.5 543.2,224.0 569.8,223.6 596.4,224.0 623.0,223.1 649.7,224.0 676.3,224.0 702.9,223.1 729.5,223.1 756.1,223.6 782.8,224.0 809.4,48.0 836.0,191.4 836.0,224.0 64.0,224.0" fill="url(#grad0)"/>
    <polygon points="64.0,222.7 90.6,224.0 117.2,224.0 143.9,224.0 170.5,224.0 197.1,224.0 223.7,221.8 250.3,222.2 277.0,197.6 303.6,217.8 330.2,223.6 356.8,202.0 383.4,196.7 410.1,222.7 436.7,222.7 463.3,224.0 489.9,224.0 516.6,198.5 543.2,223.6 569.8,223.1 596.4,223.1 623.0,222.7 649.7,224.0 676.3,223.6 702.9,224.0 729.5,224.0 756.1,223.6 782.8,224.0 809.4,52.8 836.0,187.9 836.0,224.0 64.0,224.0" fill="url(#grad1)"/>
  
    <polyline points="64.0,223.6 90.6,224.0 117.2,224.0 143.9,224.0 170.5,224.0 197.1,224.0 223.7,221.8 250.3,223.1 277.0,198.0 303.6,210.8 330.2,224.0 356.8,202.9 383.4,224.0 410.1,222.7 436.7,224.0 463.3,224.0 489.9,224.0 516.6,198.5 543.2,224.0 569.8,223.6 596.4,224.0 623.0,223.1 649.7,224.0 676.3,224.0 702.9,223.1 729.5,223.1 756.1,223.6 782.8,224.0 809.4,48.0 836.0,191.4" fill="none" stroke="#6366f1" stroke-width="2.2" stroke-linejoin="round" stroke-linecap="round"/>
    <polyline points="64.0,222.7 90.6,224.0 117.2,224.0 143.9,224.0 170.5,224.0 197.1,224.0 223.7,221.8 250.3,222.2 277.0,197.6 303.6,217.8 330.2,223.6 356.8,202.0 383.4,196.7 410.1,222.7 436.7,222.7 463.3,224.0 489.9,224.0 516.6,198.5 543.2,223.6 569.8,223.1 596.4,223.1 623.0,222.7 649.7,224.0 676.3,223.6 702.9,224.0 729.5,224.0 756.1,223.6 782.8,224.0 809.4,52.8 836.0,187.9" fill="none" stroke="#10b981" stroke-width="2.2" stroke-linejoin="round" stroke-linecap="round"/>
  
    <text x="64.0" y="242" text-anchor="middle" font-size="11" class="lbl">Jul 30</text>
    <text x="197.1" y="242" text-anchor="middle" font-size="11" class="lbl">Aug 4</text>
    <text x="330.2" y="242" text-anchor="middle" font-size="11" class="lbl">Aug 9</text>
    <text x="463.3" y="242" text-anchor="middle" font-size="11" class="lbl">Aug 14</text>
    <text x="596.4" y="242" text-anchor="middle" font-size="11" class="lbl">Aug 19</text>
    <text x="729.5" y="242" text-anchor="middle" font-size="11" class="lbl">Aug 24</text>
    <text x="836.0" y="242" text-anchor="middle" font-size="11" class="lbl">Aug 28</text>
  
    <circle cx="836.0" cy="191.4" r="4" fill="#6366f1" class="dot" stroke-width="2"><title>74 downloads</title></circle>
    <circle cx="836.0" cy="187.9" r="4" fill="#10b981" class="dot" stroke-width="2"><title>82 downloads</title></circle>
  
    <rect x="64" y="12" width="12" height="12" rx="3" fill="#6366f1"/>
    <text x="82" y="22" font-size="13" class="legend" font-weight="600">@way_marks/cli</text>
    <text x="82" y="36" font-size="11" class="lbl">688 last 30 days</text>
    <rect x="284" y="12" width="12" height="12" rx="3" fill="#10b981"/>
    <text x="302" y="22" font-size="13" class="legend" font-weight="600">@way_marks/server</text>
    <text x="302" y="36" font-size="11" class="lbl">744 last 30 days</text>
  <text x="836" y="272" text-anchor="end" font-size="10" class="foot">Updated 2026-08-30</text>
  <line x1="64" y1="48" x2="64" y2="224" class="axis" stroke-width="1"/>
  <line x1="64" y1="224" x2="836" y2="224" class="axis" stroke-width="1"/>
</svg>