<svg xmlns="http://www.w3.org/2000/svg" width="860" height="280" viewBox="0 0 860 280" style="background:#fff;border-radius:12px;font-family:system-ui,sans-serif">
  <defs>
    <linearGradient id="grad0" x1="0" y1="0" x2="0" y2="1">
      <stop offset="0%"   stop-color="#818cf8" stop-opacity="0.35"/>
      <stop offset="100%" stop-color="#818cf8" stop-opacity="0.02"/>
    </linearGradient>
    <linearGradient id="grad1" x1="0" y1="0" x2="0" y2="1">
      <stop offset="0%"   stop-color="#34d399" stop-opacity="0.35"/>
      <stop offset="100%" stop-color="#34d399" stop-opacity="0.02"/>
    </linearGradient>
  </defs>
  
    <line x1="64" y1="224.0" x2="836" y2="224.0" stroke="#e5e7eb" stroke-width="1"/>
    <text x="56" y="224.0" text-anchor="end" dominant-baseline="middle" font-size="11" fill="#6b7280">0</text>
    <line x1="64" y1="180.0" x2="836" y2="180.0" stroke="#e5e7eb" stroke-width="1"/>
    <text x="56" y="180.0" text-anchor="end" dominant-baseline="middle" font-size="11" fill="#6b7280">177</text>
    <line x1="64" y1="136.0" x2="836" y2="136.0" stroke="#e5e7eb" stroke-width="1"/>
    <text x="56" y="136.0" text-anchor="end" dominant-baseline="middle" font-size="11" fill="#6b7280">354</text>
    <line x1="64" y1="92.0" x2="836" y2="92.0" stroke="#e5e7eb" stroke-width="1"/>
    <text x="56" y="92.0" text-anchor="end" dominant-baseline="middle" font-size="11" fill="#6b7280">531</text>
    <line x1="64" y1="48.0" x2="836" y2="48.0" stroke="#e5e7eb" stroke-width="1"/>
    <text x="56" y="48.0" text-anchor="end" dominant-baseline="middle" font-size="11" fill="#6b7280">708</text>
  
    <polygon points="64.0,223.8 90.6,132.5 117.2,216.5 143.9,177.8 170.5,220.0 197.1,145.9 223.7,188.2 250.3,218.3 277.0,219.3 303.6,221.3 330.2,198.6 356.8,221.0 383.4,143.2 410.1,220.5 436.7,169.1 463.3,94.5 489.9,56.5 516.6,209.1 543.2,220.8 569.8,220.5 596.4,223.3 623.0,215.5 649.7,219.0 676.3,222.3 702.9,220.8 729.5,187.2 756.1,220.8 782.8,189.9 809.4,163.6 836.0,214.8 836.0,224.0 64.0,224.0" fill="url(#grad0)"/>
    <polygon points="64.0,224.0 90.6,123.8 117.2,216.0 143.9,179.8 170.5,219.0 197.1,130.3 223.7,188.7 250.3,218.5 277.0,219.0 303.6,221.3 330.2,189.4 356.8,219.5 383.4,131.0 410.1,221.0 436.7,162.6 463.3,91.3 489.9,48.0 516.6,211.6 543.2,220.0 569.8,220.3 596.4,223.8 623.0,215.5 649.7,219.3 676.3,219.5 702.9,221.8 729.5,177.3 756.1,220.0 782.8,185.5 809.4,224.0 836.0,213.3 836.0,224.0 64.0,224.0" fill="url(#grad1)"/>
  
    <polyline points="64.0,223.8 90.6,132.5 117.2,216.5 143.9,177.8 170.5,220.0 197.1,145.9 223.7,188.2 250.3,218.3 277.0,219.3 303.6,221.3 330.2,198.6 356.8,221.0 383.4,143.2 410.1,220.5 436.7,169.1 463.3,94.5 489.9,56.5 516.6,209.1 543.2,220.8 569.8,220.5 596.4,223.3 623.0,215.5 649.7,219.0 676.3,222.3 702.9,220.8 729.5,187.2 756.1,220.8 782.8,189.9 809.4,163.6 836.0,214.8" fill="none" stroke="#6366f1" stroke-width="2.2" stroke-linejoin="round" stroke-linecap="round"/>
    <polyline points="64.0,224.0 90.6,123.8 117.2,216.0 143.9,179.8 170.5,219.0 197.1,130.3 223.7,188.7 250.3,218.5 277.0,219.0 303.6,221.3 330.2,189.4 356.8,219.5 383.4,131.0 410.1,221.0 436.7,162.6 463.3,91.3 489.9,48.0 516.6,211.6 543.2,220.0 569.8,220.3 596.4,223.8 623.0,215.5 649.7,219.3 676.3,219.5 702.9,221.8 729.5,177.3 756.1,220.0 782.8,185.5 809.4,224.0 836.0,213.3" fill="none" stroke="#10b981" stroke-width="2.2" stroke-linejoin="round" stroke-linecap="round"/>
  
    <text x="64.0" y="242" text-anchor="middle" font-size="11" fill="#6b7280">Apr 15</text>
    <text x="197.1" y="242" text-anchor="middle" font-size="11" fill="#6b7280">Apr 20</text>
    <text x="330.2" y="242" text-anchor="middle" font-size="11" fill="#6b7280">Apr 25</text>
    <text x="463.3" y="242" text-anchor="middle" font-size="11" fill="#6b7280">Apr 30</text>
    <text x="596.4" y="242" text-anchor="middle" font-size="11" fill="#6b7280">May 5</text>
    <text x="729.5" y="242" text-anchor="middle" font-size="11" fill="#6b7280">May 10</text>
    <text x="836.0" y="242" text-anchor="middle" font-size="11" fill="#6b7280">May 14</text>
  
    <circle cx="836.0" cy="214.8" r="4" fill="#6366f1" stroke="#fff" stroke-width="2"><title>37 downloads</title></circle>
    <circle cx="836.0" cy="213.3" r="4" fill="#10b981" stroke="#fff" stroke-width="2"><title>43 downloads</title></circle>
  
    <rect x="64" y="12" width="12" height="12" rx="3" fill="#6366f1"/>
    <text x="82" y="22" font-size="13" fill="#374151" font-weight="600">@way_marks/cli</text>
    <text x="82" y="36" font-size="11" fill="#6b7280">3,723 last 30 days</text>
    <rect x="284" y="12" width="12" height="12" rx="3" fill="#10b981"/>
    <text x="302" y="22" font-size="13" fill="#374151" font-weight="600">@way_marks/server</text>
    <text x="302" y="36" font-size="11" fill="#6b7280">3,801 last 30 days</text>
  <text x="836" y="272" text-anchor="end" font-size="10" fill="#9ca3af">Updated 2026-05-15</text>
  <line x1="64" y1="48" x2="64" y2="224" stroke="#d1d5db" stroke-width="1"/>
  <line x1="64" y1="224" x2="836" y2="224" stroke="#d1d5db" stroke-width="1"/>
</svg>