<svg xmlns="http://www.w3.org/2000/svg" width="860" height="280" viewBox="0 0 860 280" style="background:#fff;border-radius:12px;font-family:system-ui,sans-serif">
  <defs>
    <linearGradient id="grad0" x1="0" y1="0" x2="0" y2="1">
      <stop offset="0%"   stop-color="#818cf8" stop-opacity="0.35"/>
      <stop offset="100%" stop-color="#818cf8" stop-opacity="0.02"/>
    </linearGradient>
    <linearGradient id="grad1" x1="0" y1="0" x2="0" y2="1">
      <stop offset="0%"   stop-color="#34d399" stop-opacity="0.35"/>
      <stop offset="100%" stop-color="#34d399" stop-opacity="0.02"/>
    </linearGradient>
  </defs>
  
    <line x1="64" y1="224.0" x2="836" y2="224.0" stroke="#e5e7eb" stroke-width="1"/>
    <text x="56" y="224.0" text-anchor="end" dominant-baseline="middle" font-size="11" fill="#6b7280">0</text>
    <line x1="64" y1="180.0" x2="836" y2="180.0" stroke="#e5e7eb" stroke-width="1"/>
    <text x="56" y="180.0" text-anchor="end" dominant-baseline="middle" font-size="11" fill="#6b7280">177</text>
    <line x1="64" y1="136.0" x2="836" y2="136.0" stroke="#e5e7eb" stroke-width="1"/>
    <text x="56" y="136.0" text-anchor="end" dominant-baseline="middle" font-size="11" fill="#6b7280">354</text>
    <line x1="64" y1="92.0" x2="836" y2="92.0" stroke="#e5e7eb" stroke-width="1"/>
    <text x="56" y="92.0" text-anchor="end" dominant-baseline="middle" font-size="11" fill="#6b7280">531</text>
    <line x1="64" y1="48.0" x2="836" y2="48.0" stroke="#e5e7eb" stroke-width="1"/>
    <text x="56" y="48.0" text-anchor="end" dominant-baseline="middle" font-size="11" fill="#6b7280">708</text>
  
    <polygon points="64.0,224.0 90.6,224.0 117.2,223.8 143.9,132.5 170.5,216.5 197.1,177.8 223.7,220.0 250.3,145.9 277.0,188.2 303.6,218.3 330.2,219.3 356.8,221.3 383.4,198.6 410.1,221.0 436.7,143.2 463.3,220.5 489.9,169.1 516.6,94.5 543.2,56.5 569.8,209.1 596.4,220.8 623.0,220.5 649.7,223.3 676.3,215.5 702.9,219.0 729.5,222.3 756.1,220.8 782.8,187.2 809.4,220.8 836.0,189.9 836.0,224.0 64.0,224.0" fill="url(#grad0)"/>
    <polygon points="64.0,223.3 90.6,223.8 117.2,224.0 143.9,123.8 170.5,216.0 197.1,179.8 223.7,219.0 250.3,130.3 277.0,188.7 303.6,218.5 330.2,219.0 356.8,221.3 383.4,189.4 410.1,219.5 436.7,131.0 463.3,221.0 489.9,162.6 516.6,91.3 543.2,48.0 569.8,211.6 596.4,220.0 623.0,220.3 649.7,223.8 676.3,215.5 702.9,219.3 729.5,219.5 756.1,221.8 782.8,177.3 809.4,220.0 836.0,185.5 836.0,224.0 64.0,224.0" fill="url(#grad1)"/>
  
    <polyline points="64.0,224.0 90.6,224.0 117.2,223.8 143.9,132.5 170.5,216.5 197.1,177.8 223.7,220.0 250.3,145.9 277.0,188.2 303.6,218.3 330.2,219.3 356.8,221.3 383.4,198.6 410.1,221.0 436.7,143.2 463.3,220.5 489.9,169.1 516.6,94.5 543.2,56.5 569.8,209.1 596.4,220.8 623.0,220.5 649.7,223.3 676.3,215.5 702.9,219.0 729.5,222.3 756.1,220.8 782.8,187.2 809.4,220.8 836.0,189.9" fill="none" stroke="#6366f1" stroke-width="2.2" stroke-linejoin="round" stroke-linecap="round"/>
    <polyline points="64.0,223.3 90.6,223.8 117.2,224.0 143.9,123.8 170.5,216.0 197.1,179.8 223.7,219.0 250.3,130.3 277.0,188.7 303.6,218.5 330.2,219.0 356.8,221.3 383.4,189.4 410.1,219.5 436.7,131.0 463.3,221.0 489.9,162.6 516.6,91.3 543.2,48.0 569.8,211.6 596.4,220.0 623.0,220.3 649.7,223.8 676.3,215.5 702.9,219.3 729.5,219.5 756.1,221.8 782.8,177.3 809.4,220.0 836.0,185.5" fill="none" stroke="#10b981" stroke-width="2.2" stroke-linejoin="round" stroke-linecap="round"/>
  
    <text x="64.0" y="242" text-anchor="middle" font-size="11" fill="#6b7280">Apr 13</text>
    <text x="197.1" y="242" text-anchor="middle" font-size="11" fill="#6b7280">Apr 18</text>
    <text x="330.2" y="242" text-anchor="middle" font-size="11" fill="#6b7280">Apr 23</text>
    <text x="463.3" y="242" text-anchor="middle" font-size="11" fill="#6b7280">Apr 28</text>
    <text x="596.4" y="242" text-anchor="middle" font-size="11" fill="#6b7280">May 3</text>
    <text x="729.5" y="242" text-anchor="middle" font-size="11" fill="#6b7280">May 8</text>
    <text x="836.0" y="242" text-anchor="middle" font-size="11" fill="#6b7280">May 12</text>
  
    <circle cx="836.0" cy="189.9" r="4" fill="#6366f1" stroke="#fff" stroke-width="2"><title>137 downloads</title></circle>
    <circle cx="836.0" cy="185.5" r="4" fill="#10b981" stroke="#fff" stroke-width="2"><title>155 downloads</title></circle>
  
    <rect x="64" y="12" width="12" height="12" rx="3" fill="#6366f1"/>
    <text x="82" y="22" font-size="13" fill="#374151" font-weight="600">@way_marks/cli</text>
    <text x="82" y="36" font-size="11" fill="#6b7280">3,443 last 30 days</text>
    <rect x="284" y="12" width="12" height="12" rx="3" fill="#10b981"/>
    <text x="302" y="22" font-size="13" fill="#374151" font-weight="600">@way_marks/server</text>
    <text x="302" y="36" font-size="11" fill="#6b7280">3,762 last 30 days</text>
  <text x="836" y="272" text-anchor="end" font-size="10" fill="#9ca3af">Updated 2026-05-13</text>
  <line x1="64" y1="48" x2="64" y2="224" stroke="#d1d5db" stroke-width="1"/>
  <line x1="64" y1="224" x2="836" y2="224" stroke="#d1d5db" stroke-width="1"/>
</svg>